<?xml version="1.0" encoding="UTF-8"?>
<svg id="Layer_1" data-name="Layer 1" xmlns="http://www.w3.org/2000/svg" version="1.1" viewBox="0 0 250 250">
  <defs>
    <style>
      .cls-1 {
        stroke-width: 4px;
      }

      .cls-1, .cls-2 {
        fill: none;
        stroke: #000;
        stroke-miterlimit: 10;
      }

      .cls-2 {
        stroke-width: 5px;
      }
    </style>
  </defs>
  <path class="cls-2" d="M96.51,47.89"/>
  <line class="cls-1" x1="122.36" y1="57.98" x2="122.36" y2="201.16"/>
  <line class="cls-1" x1="130.69" y1="57.57" x2="130.8" y2="201.16"/>
  <polyline class="cls-1" points="139.85 201.29 139.85 57.7 114.15 57.98 114.03 123.9"/>
  <path class="cls-1" d="M114.03,123.9c-19.33,26.43-32.95,51.91-52.8,78.61"/>
  <path class="cls-1" d="M114.15,57.98c-19.46,0-44.1,1.19-53.18,19.11-6.49,14.33-3.89,33.44,11.67,40.61,12.97,5.97,27.24,9.56,41.36,6.09"/>
  <polyline class="cls-1" points="114.15 119.13 114.15 137.5 114.15 201.16 214.09 200.86"/>
  <polyline class="cls-1" points="147.34 57.78 148.79 201.36 147.34 57.78 140.39 57.78"/>
</svg>